<svg xmlns="http://www.w3.org/2000/svg" viewBox="0 0 89.98 44.99">
  <defs>
    <style>
      .cls-1 {
        fill: #fff;
      }

      .cls-2 {
        fill: #f84c00;
      }
    </style>
  </defs>
  <title>Asset 1</title>
  <g id="Layer_2" data-name="Layer 2">
    <g id="Layer_1-2" data-name="Layer 1">
      <g>
        <g>
          <path class="cls-1" d="M35.24,29.44a14.52,14.52,0,1,1,0-13.89A12,12,0,0,1,41.8,11,22.49,22.49,0,1,0,41.8,34,12.11,12.11,0,0,1,35.24,29.44Z"/>
          <path class="cls-1" d="M67.49,0A22.52,22.52,0,0,0,48.18,11a12,12,0,0,1,6.56,4.59,14.52,14.52,0,1,1,0,13.89A12.11,12.11,0,0,1,48.18,34,22.49,22.49,0,1,0,67.49,0Z"/>
        </g>
        <circle class="cls-2" cx="45.15" cy="22.27" r="7.62"/>
      </g>
    </g>
  </g>
</svg>
